<svg width="24" height="24" viewBox="0 0 24 24" fill="none" xmlns="http://www.w3.org/2000/svg">
<path d="M12 11.388C11.094 9.62701 8.628 6.34401 6.335 4.72601C4.138 3.17601 3.301 3.44301 2.752 3.69301C2.116 3.97801 2 4.95501 2 5.52801C2 6.10301 2.315 10.237 2.52 10.928C3.2 13.208 5.614 13.978 7.84 13.731C4.58 14.214 1.683 15.401 5.48 19.629C9.658 23.954 11.206 18.702 12 16.039C12.794 18.702 13.708 23.765 18.444 19.629C22 16.039 19.421 14.214 16.161 13.731C18.386 13.978 20.801 13.208 21.48 10.928C21.685 10.238 22 6.10301 22 5.52901C22 4.95401 21.884 3.97901 21.248 3.69101C20.699 3.44301 19.862 3.17401 17.665 4.72401C15.372 6.34501 12.905 9.62801 12 11.388Z" fill="#021D4C"/>
</svg>
