<svg width="25" height="25" viewBox="0 0 25 25" fill="none" xmlns="http://www.w3.org/2000/svg">
<path d="M13.7393 2.89771C14.469 2.89491 15.1987 2.90225 15.9283 2.91971L16.1223 2.92671C16.3463 2.93471 16.5673 2.94471 16.8343 2.95671C17.8983 3.00671 18.6243 3.17471 19.2613 3.42171C19.9213 3.67571 20.4773 4.01971 21.0333 4.57571C21.5416 5.07532 21.9351 5.67966 22.1863 6.34671C22.4333 6.98371 22.6013 7.71071 22.6513 8.77471C22.6633 9.04071 22.6733 9.26271 22.6813 9.48671L22.6873 9.68072C22.705 10.4099 22.7127 11.1393 22.7103 11.8687L22.7113 12.6147V13.9247C22.7137 14.6545 22.7061 15.3842 22.6883 16.1137L22.6823 16.3077C22.6743 16.5317 22.6643 16.7527 22.6523 17.0197C22.6023 18.0837 22.4323 18.8097 22.1863 19.4467C21.9359 20.1145 21.5424 20.7193 21.0333 21.2187C20.5332 21.727 19.9286 22.1205 19.2613 22.3717C18.6243 22.6187 17.8983 22.7867 16.8343 22.8367C16.5673 22.8487 16.3463 22.8587 16.1223 22.8667L15.9283 22.8727C15.1987 22.8905 14.469 22.8982 13.7393 22.8957L12.9933 22.8967H11.6843C10.9545 22.8992 10.2248 22.8915 9.49527 22.8737L9.30127 22.8677C9.06388 22.8591 8.82654 22.8491 8.58927 22.8377C7.52527 22.7877 6.79927 22.6177 6.16127 22.3717C5.49395 22.1211 4.88951 21.7275 4.39027 21.2187C3.88132 20.719 3.48749 20.1143 3.23627 19.4467C2.98927 18.8097 2.82127 18.0837 2.77127 17.0197C2.76013 16.7824 2.75013 16.5451 2.74127 16.3077L2.73627 16.1137C2.71783 15.3842 2.7095 14.6545 2.71127 13.9247V11.8687C2.70848 11.1393 2.71581 10.4099 2.73327 9.68072L2.74027 9.48671C2.74827 9.26271 2.75827 9.04071 2.77027 8.77471C2.82027 7.70971 2.98827 6.98471 3.23527 6.34671C3.48664 5.67933 3.88123 5.07516 4.39127 4.57671C4.89016 4.06747 5.49423 3.67329 6.16127 3.42171C6.79927 3.17471 7.52427 3.00671 8.58927 2.95671L9.30127 2.92671L9.49527 2.92171C10.2245 2.90329 10.9539 2.89495 11.6833 2.89671L13.7393 2.89771ZM12.7113 7.89771C12.0488 7.88834 11.391 8.01074 10.7762 8.25778C10.1615 8.50483 9.60192 8.87159 9.13012 9.33677C8.65831 9.80195 8.28367 10.3563 8.02796 10.9675C7.77224 11.5787 7.64056 12.2347 7.64056 12.8972C7.64056 13.5598 7.77224 14.2157 8.02796 14.827C8.28367 15.4382 8.65831 15.9925 9.13012 16.4577C9.60192 16.9228 10.1615 17.2896 10.7762 17.5366C11.391 17.7837 12.0488 17.9061 12.7113 17.8967C14.0374 17.8967 15.3091 17.3699 16.2468 16.4322C17.1845 15.4946 17.7113 14.2228 17.7113 12.8967C17.7113 11.5706 17.1845 10.2989 16.2468 9.36118C15.3091 8.4235 14.0374 7.89771 12.7113 7.89771ZM12.7113 9.89772C13.1098 9.89037 13.5058 9.96251 13.8761 10.1099C14.2464 10.2573 14.5836 10.4771 14.868 10.7563C15.1525 11.0355 15.3784 11.3685 15.5327 11.7361C15.687 12.1036 15.7665 12.4981 15.7665 12.8967C15.7666 13.2953 15.6872 13.6899 15.5331 14.0574C15.379 14.425 15.1531 14.7582 14.8688 15.0375C14.5844 15.3167 14.2473 15.5366 13.877 15.6841C13.5067 15.8317 13.1108 15.9039 12.7123 15.8967C11.9166 15.8967 11.1536 15.5806 10.591 15.018C10.0283 14.4554 9.71227 13.6924 9.71227 12.8967C9.71227 12.1011 10.0283 11.338 10.591 10.7754C11.1536 10.2128 11.9166 9.89671 12.7123 9.89671L12.7113 9.89772ZM17.9613 6.39771C17.6387 6.41063 17.3336 6.54787 17.1099 6.78069C16.8862 7.01351 16.7613 7.32385 16.7613 7.64671C16.7613 7.96958 16.8862 8.27992 17.1099 8.51274C17.3336 8.74556 17.6387 8.8828 17.9613 8.89571C18.2928 8.89571 18.6107 8.76402 18.8452 8.5296C19.0796 8.29518 19.2113 7.97724 19.2113 7.64571C19.2113 7.31419 19.0796 6.99625 18.8452 6.76183C18.6107 6.52741 18.2928 6.39571 17.9613 6.39571V6.39771Z" fill="#021D4C"/>
</svg>
