<svg width="18" height="19" viewBox="0 0 18 19" fill="none" xmlns="http://www.w3.org/2000/svg">
<g clip-path="url(#clip0_48_529)">
<path d="M0 1.75568C0 1.04356 0.59175 0.466431 1.32187 0.466431H16.6781C17.4082 0.466431 18 1.04356 18 1.75568V17.1772C18 17.8893 17.4082 18.4664 16.6781 18.4664H1.32187C0.59175 18.4664 0 17.8893 0 17.1772V1.75568ZM5.56087 15.5347V7.40656H2.85975V15.5347H5.56087ZM4.21088 6.29618C5.1525 6.29618 5.73862 5.67293 5.73862 4.89218C5.72175 4.09456 5.15363 3.48818 4.22888 3.48818C3.30413 3.48818 2.7 4.09568 2.7 4.89218C2.7 5.67293 3.28612 6.29618 4.19287 6.29618H4.21088ZM9.73238 15.5347V10.9953C9.73238 10.7523 9.75037 10.5093 9.82238 10.3361C10.017 9.85118 10.4614 9.34831 11.2084 9.34831C12.186 9.34831 12.5764 10.0931 12.5764 11.1866V15.5347H15.2775V10.8727C15.2775 8.37518 13.9455 7.21418 12.168 7.21418C10.7347 7.21418 10.0924 8.00168 9.73238 8.55631V8.58443H9.71438C9.72035 8.57504 9.72635 8.56566 9.73238 8.55631V7.40656H7.03237C7.06612 8.16931 7.03237 15.5347 7.03237 15.5347H9.73238Z" fill="#021D4C"/>
</g>
<defs>
<clipPath id="clip0_48_529">
<rect width="18" height="18" fill="white" transform="translate(0 0.466431)"/>
</clipPath>
</defs>
</svg>
