<svg width="24" height="25" viewBox="0 0 24 25" fill="none" xmlns="http://www.w3.org/2000/svg">
<path d="M22.46 6.46643C21.69 6.81643 20.86 7.04643 20 7.15643C20.88 6.62643 21.56 5.78643 21.88 4.77643C21.05 5.27643 20.13 5.62643 19.16 5.82643C18.37 4.96643 17.26 4.46643 16 4.46643C13.65 4.46643 11.73 6.38643 11.73 8.75643C11.73 9.09643 11.77 9.42643 11.84 9.73643C8.28004 9.55643 5.11004 7.84643 3.00004 5.25643C2.63004 5.88643 2.42004 6.62643 2.42004 7.40643C2.42004 8.89643 3.17004 10.2164 4.33004 10.9664C3.62004 10.9664 2.96004 10.7664 2.38004 10.4664V10.4964C2.38004 12.5764 3.86004 14.3164 5.82004 14.7064C5.19077 14.8786 4.53013 14.9026 3.89004 14.7764C4.16165 15.6289 4.69358 16.3748 5.41106 16.9094C6.12854 17.4439 6.99549 17.7401 7.89004 17.7564C6.37367 18.9569 4.49404 19.6057 2.56004 19.5964C2.22004 19.5964 1.88004 19.5764 1.54004 19.5364C3.44004 20.7564 5.70004 21.4664 8.12004 21.4664C16 21.4664 20.33 14.9264 20.33 9.25643C20.33 9.06643 20.33 8.88643 20.32 8.69643C21.16 8.09643 21.88 7.33643 22.46 6.46643Z" fill="#021D4C"/>
</svg>
